<?xml version="1.0" encoding="UTF-8"?>
<svg xmlns="http://www.w3.org/2000/svg" xmlns:xlink="http://www.w3.org/1999/xlink" width="32px" height="32px" viewBox="0 0 32 32" version="1.1">
<defs>
<clipPath id="clip1">
  <path d="M 1.773438 0 L 30.222656 0 L 30.222656 32 L 1.773438 32 Z M 1.773438 0 "/>
</clipPath>
</defs>
<g id="surface1">
<g clip-path="url(#clip1)" clip-rule="nonzero">
<path style=" stroke:none;fill-rule:nonzero;fill:rgb(0%,13.333334%,20%);fill-opacity:1;" d="M 17.097656 1.300781 C 16.460938 0.9375 15.6875 0.9375 15.050781 1.300781 L 3.875 7.824219 C 3.25 8.1875 2.863281 8.863281 2.863281 9.585938 L 2.800781 22.523438 C 2.800781 23.261719 3.1875 23.9375 3.824219 24.300781 L 14.898438 30.699219 C 15.535156 31.0625 16.3125 31.0625 16.949219 30.699219 L 28.136719 24.175781 C 28.761719 23.8125 29.148438 23.136719 29.148438 22.414062 L 29.210938 9.460938 C 29.210938 8.726562 28.824219 8.050781 28.1875 7.6875 Z M 17.613281 0.414062 L 28.6875 6.8125 C 29.636719 7.363281 30.222656 8.375 30.222656 9.488281 L 30.175781 22.425781 C 30.175781 23.511719 29.585938 24.511719 28.648438 25.0625 L 17.460938 31.585938 C 16.511719 32.136719 15.335938 32.148438 14.386719 31.601562 L 3.3125 25.199219 C 2.363281 24.636719 1.773438 23.625 1.773438 22.523438 L 1.835938 9.574219 C 1.835938 8.488281 2.425781 7.488281 3.363281 6.9375 L 14.550781 0.414062 C 15.488281 -0.136719 16.660156 -0.136719 17.613281 0.414062 M 7.863281 17.886719 C 7.972656 18.335938 8.175781 18.75 8.4375 19.125 C 8.699219 19.488281 9.050781 19.800781 9.4375 20.023438 C 9.875 20.273438 10.386719 20.398438 10.886719 20.386719 C 11.625 20.425781 12.363281 20.1875 12.925781 19.699219 C 13.4375 19.210938 13.800781 18.574219 13.949219 17.886719 L 15.136719 17.886719 C 14.949219 18.875 14.472656 19.761719 13.75 20.460938 C 12.9375 21.113281 11.925781 21.4375 10.886719 21.375 C 10.199219 21.386719 9.511719 21.25 8.886719 20.960938 C 8.347656 20.710938 7.875 20.324219 7.511719 19.851562 C 7.148438 19.363281 6.886719 18.800781 6.722656 18.199219 C 6.550781 17.550781 6.460938 16.886719 6.472656 16.226562 C 6.472656 15.585938 6.5625 14.949219 6.722656 14.335938 C 6.886719 13.738281 7.148438 13.1875 7.511719 12.6875 C 7.875 12.199219 8.335938 11.800781 8.886719 11.511719 C 9.5 11.199219 10.1875 11.050781 10.886719 11.0625 C 12.222656 11.011719 13.5 11.664062 14.238281 12.773438 C 14.597656 13.3125 14.847656 13.898438 14.988281 14.539062 C 15.136719 15.199219 15.199219 15.875 15.175781 16.550781 L 7.675781 16.550781 C 7.6875 17.011719 7.75 17.449219 7.863281 17.886719 M 13.761719 14.25 C 13.625 13.851562 13.410156 13.476562 13.148438 13.148438 C 12.886719 12.824219 12.5625 12.5625 12.1875 12.375 C 11.785156 12.175781 11.347656 12.074219 10.898438 12.085938 C 10.449219 12.074219 10 12.175781 9.597656 12.375 C 9.222656 12.5625 8.898438 12.824219 8.636719 13.148438 C 8.363281 13.488281 8.148438 13.863281 8 14.261719 C 7.847656 14.675781 7.738281 15.113281 7.6875 15.5625 L 14 15.5625 C 13.988281 15.113281 13.910156 14.675781 13.761719 14.25 M 15.960938 11.363281 L 17.449219 11.363281 L 20.222656 15.0625 L 22.949219 11.363281 L 24.4375 11.363281 L 20.925781 16.039062 L 24.722656 21.125 L 23.210938 21.125 L 20.148438 17.023438 L 17.148438 21.125 L 15.675781 21.125 L 19.449219 16.0625 Z M 15.960938 11.363281 "/>
</g>
</g>
</svg>
