<?xml version="1.0" encoding="UTF-8"?>
<svg xmlns="http://www.w3.org/2000/svg" xmlns:xlink="http://www.w3.org/1999/xlink" width="32px" height="32px" viewBox="0 0 32 32" version="1.1">
<g id="surface1">
<path style=" stroke:none;fill-rule:evenodd;fill:rgb(58.039218%,47.450981%,36.470589%);fill-opacity:1;" d="M 21.816406 25.035156 C 21.855469 24.953125 21.898438 24.882812 21.933594 24.808594 C 21.953125 24.761719 21.988281 24.75 22.035156 24.75 C 22.316406 24.757812 22.601562 24.769531 22.882812 24.769531 C 23.125 24.773438 23.367188 24.769531 23.609375 24.765625 C 23.878906 24.761719 24.152344 24.75 24.421875 24.757812 C 24.78125 24.765625 25.136719 24.839844 25.460938 25 C 25.851562 25.191406 26.148438 25.484375 26.347656 25.871094 C 26.476562 26.117188 26.550781 26.378906 26.582031 26.65625 C 26.625 27.054688 26.597656 27.449219 26.46875 27.832031 C 26.308594 28.308594 26.011719 28.675781 25.59375 28.949219 C 25.273438 29.160156 24.921875 29.28125 24.542969 29.355469 C 24.144531 29.429688 23.746094 29.40625 23.34375 29.40625 C 22.90625 29.40625 22.46875 29.398438 22.027344 29.394531 C 21.953125 29.390625 21.941406 29.378906 21.960938 29.304688 L 21.980469 29.238281 C 22.023438 29.101562 22.046875 29.097656 22.179688 29.074219 C 22.277344 29.058594 22.375 29.023438 22.453125 28.972656 C 22.5 28.941406 22.519531 28.859375 22.535156 28.800781 C 22.550781 28.746094 22.550781 28.6875 22.554688 28.632812 C 22.558594 27.773438 22.566406 26.917969 22.570312 26.0625 C 22.570312 25.847656 22.566406 25.628906 22.554688 25.414062 C 22.542969 25.261719 22.464844 25.160156 22.285156 25.125 C 22.144531 25.097656 22.003906 25.074219 21.863281 25.050781 Z M 25.832031 27.109375 C 25.816406 26.9375 25.804688 26.765625 25.773438 26.597656 C 25.703125 26.195312 25.527344 25.84375 25.214844 25.566406 C 24.714844 25.121094 24.109375 25.054688 23.476562 25.109375 C 23.335938 25.121094 23.304688 25.167969 23.300781 25.316406 C 23.296875 25.527344 23.292969 25.738281 23.292969 25.945312 C 23.292969 26.613281 23.292969 27.277344 23.292969 27.945312 C 23.292969 28.132812 23.296875 28.324219 23.300781 28.511719 C 23.308594 28.707031 23.378906 28.871094 23.566406 28.945312 C 23.867188 29.0625 24.179688 29.078125 24.492188 29.027344 C 24.996094 28.953125 25.34375 28.660156 25.578125 28.222656 C 25.765625 27.875 25.816406 27.496094 25.832031 27.109375 Z M 27.050781 29.375 C 27.046875 29.273438 27.085938 29.1875 27.140625 29.109375 C 27.152344 29.085938 27.203125 29.085938 27.238281 29.082031 L 27.523438 29.023438 C 27.625 29.003906 27.679688 28.933594 27.691406 28.835938 C 27.703125 28.769531 27.710938 28.703125 27.710938 28.636719 C 27.71875 28.113281 27.722656 27.589844 27.726562 27.0625 C 27.730469 26.539062 27.726562 26.015625 27.726562 25.488281 L 27.722656 25.390625 C 27.714844 25.21875 27.632812 25.132812 27.464844 25.109375 L 27.101562 25.054688 C 27.058594 25.046875 27.039062 25.023438 27.058594 24.984375 C 27.085938 24.917969 27.113281 24.847656 27.152344 24.785156 C 27.167969 24.765625 27.214844 24.753906 27.25 24.757812 C 27.421875 24.757812 27.597656 24.773438 27.769531 24.769531 L 29.28125 24.761719 C 29.570312 24.761719 29.851562 24.8125 30.113281 24.953125 C 30.402344 25.105469 30.5625 25.339844 30.605469 25.664062 C 30.65625 26.003906 30.550781 26.289062 30.304688 26.515625 C 30.203125 26.609375 30.070312 26.667969 29.953125 26.746094 L 29.914062 26.769531 C 30.023438 26.808594 30.128906 26.84375 30.230469 26.886719 C 30.527344 27.007812 30.761719 27.199219 30.886719 27.503906 C 30.988281 27.742188 30.988281 27.992188 30.929688 28.242188 C 30.835938 28.628906 30.582031 28.886719 30.25 29.082031 C 29.933594 29.265625 29.597656 29.375 29.238281 29.390625 C 28.902344 29.410156 28.570312 29.402344 28.238281 29.40625 L 28.042969 29.40625 C 27.722656 29.402344 27.402344 29.390625 27.082031 29.382812 Z M 28.433594 27.851562 L 28.4375 27.851562 C 28.4375 28.019531 28.4375 28.183594 28.4375 28.347656 C 28.441406 28.453125 28.4375 28.5625 28.460938 28.664062 C 28.496094 28.820312 28.566406 28.957031 28.738281 29 C 28.96875 29.0625 29.207031 29.074219 29.441406 29.03125 C 29.734375 28.980469 29.96875 28.832031 30.097656 28.554688 C 30.195312 28.34375 30.210938 28.125 30.175781 27.898438 C 30.132812 27.601562 29.976562 27.386719 29.710938 27.246094 C 29.539062 27.152344 29.355469 27.09375 29.160156 27.085938 C 28.941406 27.078125 28.722656 27.078125 28.503906 27.070312 C 28.441406 27.070312 28.433594 27.101562 28.433594 27.152344 C 28.4375 27.386719 28.433594 27.621094 28.433594 27.851562 Z M 28.902344 26.734375 C 29.019531 26.730469 29.15625 26.726562 29.292969 26.714844 C 29.550781 26.6875 29.730469 26.558594 29.824219 26.3125 C 29.875 26.1875 29.871094 26.058594 29.875 25.925781 C 29.878906 25.585938 29.679688 25.308594 29.355469 25.195312 C 29.109375 25.105469 28.851562 25.105469 28.59375 25.109375 C 28.488281 25.113281 28.441406 25.160156 28.441406 25.265625 L 28.425781 26.636719 C 28.425781 26.691406 28.449219 26.714844 28.5 26.71875 Z M 28.902344 26.734375 "/>
<path style=" stroke:none;fill-rule:evenodd;fill:rgb(31.37255%,21.960784%,16.862746%);fill-opacity:1;" d="M 2.636719 29.113281 L 2.617188 29.347656 C 2.449219 29.347656 2.289062 29.347656 2.132812 29.347656 C 1.839844 29.351562 1.542969 29.355469 1.246094 29.359375 L 1.21875 29.363281 C 1.175781 29.355469 1.101562 29.355469 1.097656 29.34375 C 1.085938 29.273438 1.089844 29.199219 1.09375 29.128906 C 1.09375 29.121094 1.121094 29.109375 1.140625 29.105469 L 1.367188 29.054688 C 1.511719 29.015625 1.5625 28.953125 1.570312 28.808594 C 1.578125 28.640625 1.585938 28.472656 1.585938 28.304688 C 1.585938 27.894531 1.585938 27.484375 1.585938 27.074219 C 1.585938 26.980469 1.554688 26.90625 1.464844 26.867188 C 1.359375 26.820312 1.25 26.777344 1.144531 26.734375 C 1.09375 26.710938 1.027344 26.699219 1.03125 26.632812 C 1.039062 26.5625 1.101562 26.542969 1.164062 26.53125 C 1.414062 26.472656 1.664062 26.417969 1.914062 26.355469 C 1.996094 26.335938 2.070312 26.304688 2.167969 26.269531 C 2.171875 26.320312 2.183594 26.371094 2.179688 26.421875 L 2.164062 26.65625 C 2.164062 26.683594 2.179688 26.71875 2.199219 26.734375 C 2.210938 26.742188 2.25 26.726562 2.273438 26.710938 C 2.484375 26.546875 2.710938 26.40625 2.96875 26.324219 C 3.367188 26.199219 3.710938 26.316406 3.949219 26.660156 C 4.035156 26.78125 4.035156 26.78125 4.152344 26.695312 C 4.355469 26.550781 4.566406 26.421875 4.800781 26.335938 C 5.316406 26.148438 5.8125 26.386719 5.992188 26.90625 C 6.058594 27.097656 6.085938 27.292969 6.082031 27.492188 L 6.078125 28.816406 C 6.078125 28.925781 6.113281 28.988281 6.21875 29.023438 C 6.335938 29.058594 6.457031 29.085938 6.589844 29.121094 L 6.558594 29.347656 C 6.40625 29.347656 6.269531 29.347656 6.132812 29.347656 C 5.796875 29.351562 5.460938 29.351562 5.125 29.359375 C 5.066406 29.363281 5.050781 29.347656 5.046875 29.292969 C 5.039062 29.117188 5.039062 29.117188 5.203125 29.078125 L 5.257812 29.066406 C 5.417969 29.019531 5.472656 28.972656 5.472656 28.808594 C 5.476562 28.339844 5.488281 27.867188 5.464844 27.398438 C 5.4375 26.914062 5.054688 26.652344 4.582031 26.777344 C 4.429688 26.820312 4.289062 26.890625 4.160156 26.980469 C 4.117188 27.011719 4.109375 27.050781 4.109375 27.105469 C 4.125 27.3125 4.132812 27.519531 4.132812 27.726562 C 4.136719 28.089844 4.132812 28.449219 4.132812 28.8125 C 4.136719 28.960938 4.183594 29.015625 4.332031 29.050781 L 4.546875 29.101562 L 4.585938 29.109375 C 4.589844 29.179688 4.59375 29.246094 4.589844 29.316406 C 4.585938 29.359375 4.554688 29.363281 4.515625 29.363281 C 4.304688 29.359375 4.097656 29.351562 3.886719 29.351562 C 3.632812 29.351562 3.375 29.359375 3.121094 29.363281 L 3.0625 29.363281 C 3.0625 29.289062 3.058594 29.21875 3.0625 29.152344 C 3.066406 29.132812 3.09375 29.109375 3.113281 29.105469 L 3.367188 29.050781 C 3.472656 29.027344 3.523438 28.972656 3.53125 28.863281 C 3.558594 28.359375 3.578125 27.855469 3.53125 27.355469 C 3.523438 27.257812 3.492188 27.160156 3.449219 27.070312 C 3.320312 26.785156 3.03125 26.664062 2.695312 26.75 C 2.539062 26.792969 2.394531 26.863281 2.257812 26.957031 C 2.195312 27 2.164062 27.058594 2.164062 27.128906 C 2.164062 27.632812 2.167969 28.132812 2.167969 28.632812 L 2.171875 28.828125 C 2.175781 28.960938 2.230469 29.03125 2.367188 29.0625 C 2.453125 29.082031 2.539062 29.09375 2.636719 29.113281 Z M 2.636719 29.113281 "/>
<path style=" stroke:none;fill-rule:evenodd;fill:rgb(30.980393%,21.960784%,16.862746%);fill-opacity:1;" d="M 17.75 26.320312 C 17.789062 26.507812 17.789062 26.679688 17.648438 26.808594 C 17.511719 26.933594 17.339844 26.890625 17.167969 26.863281 C 17.183594 26.953125 17.203125 27.03125 17.210938 27.105469 C 17.273438 27.679688 17.027344 28.101562 16.496094 28.347656 C 16.292969 28.4375 16.082031 28.472656 15.863281 28.488281 C 15.757812 28.496094 15.660156 28.582031 15.652344 28.667969 C 15.640625 28.757812 15.699219 28.851562 15.8125 28.878906 C 15.945312 28.910156 16.082031 28.917969 16.21875 28.933594 C 16.511719 28.96875 16.808594 28.984375 17.101562 29.035156 C 17.539062 29.117188 17.785156 29.496094 17.707031 29.9375 C 17.636719 30.332031 17.410156 30.617188 17.09375 30.835938 C 16.558594 31.203125 15.976562 31.3125 15.351562 31.125 C 14.996094 31.015625 14.746094 30.78125 14.660156 30.402344 C 14.613281 30.210938 14.660156 30.039062 14.804688 29.910156 C 14.972656 29.757812 15.160156 29.625 15.335938 29.480469 L 15.394531 29.421875 L 15.328125 29.375 C 15.144531 29.289062 15 29.171875 14.945312 28.96875 C 14.925781 28.898438 14.945312 28.851562 15.003906 28.816406 C 15.105469 28.757812 15.203125 28.695312 15.304688 28.632812 C 15.347656 28.605469 15.394531 28.574219 15.4375 28.539062 C 15.496094 28.496094 15.492188 28.460938 15.421875 28.4375 C 15.257812 28.375 15.113281 28.289062 15 28.152344 C 14.808594 27.929688 14.757812 27.660156 14.773438 27.375 C 14.796875 26.933594 15.035156 26.640625 15.425781 26.453125 C 15.890625 26.230469 16.355469 26.21875 16.832031 26.421875 C 17.003906 26.496094 17.191406 26.511719 17.378906 26.5 C 17.519531 26.488281 17.640625 26.4375 17.75 26.320312 Z M 16.039062 29.492188 C 15.691406 29.488281 15.582031 29.53125 15.378906 29.738281 C 15.148438 29.972656 15.148438 30.296875 15.378906 30.53125 C 15.550781 30.710938 15.769531 30.792969 16.007812 30.816406 C 16.289062 30.847656 16.566406 30.835938 16.824219 30.695312 C 17.09375 30.542969 17.230469 30.261719 17.167969 29.980469 C 17.117188 29.75 16.945312 29.640625 16.738281 29.582031 C 16.5 29.511719 16.253906 29.496094 16.039062 29.492188 Z M 15.355469 27.265625 C 15.367188 27.359375 15.371094 27.460938 15.394531 27.554688 C 15.449219 27.800781 15.558594 28.015625 15.800781 28.125 C 16.089844 28.253906 16.453125 28.199219 16.578125 27.796875 C 16.664062 27.519531 16.65625 27.246094 16.550781 26.976562 C 16.503906 26.855469 16.429688 26.753906 16.324219 26.679688 C 16.074219 26.507812 15.625 26.484375 15.441406 26.867188 C 15.382812 26.992188 15.359375 27.125 15.355469 27.265625 Z M 15.355469 27.265625 "/>
<path style=" stroke:none;fill-rule:evenodd;fill:rgb(30.980393%,21.568628%,16.862746%);fill-opacity:1;" d="M 11.835938 26.257812 C 11.847656 26.300781 11.867188 26.351562 11.867188 26.398438 C 11.867188 26.492188 11.855469 26.585938 11.851562 26.679688 L 11.851562 26.757812 L 11.929688 26.699219 C 12.144531 26.519531 12.375 26.371094 12.644531 26.289062 C 13.128906 26.144531 13.617188 26.410156 13.773438 26.902344 C 13.832031 27.089844 13.855469 27.285156 13.859375 27.480469 C 13.863281 27.917969 13.867188 28.355469 13.871094 28.789062 C 13.875 28.945312 13.890625 28.976562 14.039062 29.019531 C 14.125 29.046875 14.210938 29.0625 14.296875 29.078125 C 14.34375 29.085938 14.367188 29.105469 14.363281 29.152344 L 14.363281 29.195312 C 14.363281 29.375 14.347656 29.382812 14.175781 29.382812 C 13.753906 29.382812 13.335938 29.382812 12.914062 29.386719 C 12.789062 29.386719 12.789062 29.390625 12.777344 29.269531 L 12.777344 29.199219 C 12.785156 29.089844 12.785156 29.09375 12.890625 29.078125 C 12.960938 29.066406 13.03125 29.050781 13.101562 29.03125 C 13.171875 29.015625 13.203125 28.960938 13.214844 28.890625 C 13.21875 28.855469 13.226562 28.820312 13.226562 28.785156 C 13.21875 28.308594 13.226562 27.832031 13.199219 27.355469 C 13.179688 26.96875 12.886719 26.738281 12.5 26.765625 C 12.308594 26.777344 12.136719 26.84375 11.980469 26.953125 C 11.878906 27.023438 11.855469 27.128906 11.859375 27.242188 C 11.859375 27.6875 11.863281 28.132812 11.867188 28.578125 C 11.871094 28.675781 11.871094 28.773438 11.882812 28.871094 C 11.890625 28.976562 11.929688 29.019531 12.03125 29.042969 C 12.132812 29.066406 12.234375 29.078125 12.339844 29.09375 L 12.347656 29.175781 C 12.351562 29.367188 12.332031 29.382812 12.148438 29.382812 C 11.710938 29.378906 11.277344 29.382812 10.84375 29.386719 C 10.777344 29.390625 10.75 29.367188 10.75 29.300781 L 10.75 29.273438 C 10.738281 29.101562 10.742188 29.09375 10.90625 29.066406 L 10.984375 29.050781 C 11.160156 29.011719 11.203125 28.964844 11.207031 28.785156 C 11.214844 28.214844 11.21875 27.648438 11.222656 27.082031 C 11.226562 27 11.195312 26.9375 11.117188 26.902344 C 11.011719 26.855469 10.902344 26.8125 10.796875 26.765625 C 10.738281 26.742188 10.667969 26.726562 10.667969 26.644531 C 10.664062 26.585938 10.726562 26.535156 10.8125 26.519531 C 10.980469 26.484375 11.152344 26.453125 11.320312 26.414062 C 11.488281 26.371094 11.652344 26.316406 11.835938 26.257812 Z M 11.835938 26.257812 "/>
<path style=" stroke:none;fill-rule:evenodd;fill:rgb(30.980393%,21.960784%,16.862746%);fill-opacity:1;" d="M 21.214844 27.742188 C 21.207031 28.273438 21.070312 28.703125 20.695312 29.023438 C 20.21875 29.429688 19.480469 29.570312 18.875 29.265625 C 18.617188 29.132812 18.425781 28.933594 18.300781 28.675781 C 18.113281 28.277344 18.0625 27.859375 18.164062 27.429688 C 18.261719 27.003906 18.519531 26.695312 18.902344 26.496094 C 19.300781 26.292969 19.714844 26.210938 20.15625 26.320312 C 20.710938 26.453125 21.113281 26.910156 21.191406 27.484375 C 21.207031 27.585938 21.210938 27.691406 21.214844 27.742188 Z M 20.570312 28.03125 L 20.550781 28.027344 C 20.550781 27.976562 20.554688 27.925781 20.550781 27.878906 C 20.53125 27.566406 20.460938 27.269531 20.28125 27.007812 C 20.109375 26.761719 19.875 26.617188 19.574219 26.59375 C 19.234375 26.570312 18.949219 26.761719 18.847656 27.105469 C 18.695312 27.628906 18.75 28.136719 19.011719 28.613281 C 19.128906 28.820312 19.296875 28.976562 19.527344 29.054688 C 19.976562 29.214844 20.375 29.007812 20.488281 28.550781 C 20.53125 28.378906 20.546875 28.203125 20.570312 28.03125 Z M 20.570312 28.03125 "/>
<path style=" stroke:none;fill-rule:evenodd;fill:rgb(30.980393%,21.568628%,16.862746%);fill-opacity:1;" d="M 10.203125 27.785156 C 10.195312 28.164062 10.105469 28.515625 9.871094 28.820312 C 9.617188 29.148438 9.273438 29.324219 8.878906 29.398438 C 8.414062 29.484375 7.976562 29.40625 7.601562 29.09375 C 7.425781 28.945312 7.304688 28.753906 7.226562 28.539062 C 7.09375 28.183594 7.0625 27.820312 7.140625 27.449219 C 7.226562 27.050781 7.453125 26.75 7.800781 26.546875 C 8.199219 26.308594 8.632812 26.207031 9.097656 26.3125 C 9.691406 26.445312 10.035156 26.835938 10.160156 27.421875 C 10.1875 27.539062 10.191406 27.664062 10.203125 27.785156 Z M 9.554688 28.035156 L 9.535156 28.03125 L 9.535156 27.960938 C 9.527344 27.613281 9.457031 27.277344 9.25 26.988281 C 9.09375 26.773438 8.890625 26.640625 8.625 26.601562 C 8.191406 26.539062 7.910156 26.796875 7.816406 27.144531 C 7.695312 27.597656 7.734375 28.046875 7.921875 28.476562 C 8.039062 28.746094 8.226562 28.953125 8.511719 29.054688 C 8.957031 29.214844 9.359375 29.003906 9.472656 28.546875 C 9.515625 28.378906 9.527344 28.207031 9.554688 28.035156 Z M 9.554688 28.035156 "/>
<path style=" stroke:none;fill-rule:evenodd;fill:rgb(26.274511%,60.000002%,20.392157%);fill-opacity:1;" d="M 20.589844 8.386719 C 20.898438 9.273438 21.117188 10.179688 21.191406 11.117188 C 21.28125 12.28125 21.238281 13.4375 20.992188 14.582031 L 20.960938 14.671875 C 20.886719 14.671875 20.808594 14.664062 20.730469 14.675781 C 20.097656 14.773438 19.460938 14.878906 18.824219 14.980469 C 18.167969 15.085938 17.511719 15.191406 16.855469 15.304688 C 16.625 15.34375 16.335938 15.296875 16.242188 15.617188 L 16.199219 15.632812 L 16.230469 13.710938 L 16.195312 9.082031 L 16.503906 9.027344 C 17.003906 8.945312 17.503906 8.863281 18.003906 8.785156 C 18.601562 8.6875 19.199219 8.597656 19.796875 8.503906 C 20.0625 8.464844 20.328125 8.425781 20.589844 8.386719 Z M 20.589844 8.386719 "/>
<path style=" stroke:none;fill-rule:evenodd;fill:rgb(27.058825%,64.705884%,21.960784%);fill-opacity:1;" d="M 15.566406 21.226562 C 15.242188 20.949219 14.910156 20.683594 14.601562 20.394531 C 12.9375 18.824219 11.71875 16.976562 11.117188 14.746094 C 10.953125 14.132812 10.84375 13.511719 10.808594 12.875 C 10.78125 12.433594 10.746094 11.984375 10.777344 11.542969 C 10.863281 10.371094 11.03125 9.210938 11.375 8.078125 L 11.394531 8.054688 C 11.429688 8.097656 11.476562 8.136719 11.492188 8.1875 C 11.828125 9.175781 12.160156 10.167969 12.492188 11.15625 C 13.535156 14.269531 14.578125 17.382812 15.621094 20.496094 C 15.640625 20.554688 15.695312 20.605469 15.730469 20.660156 Z M 15.566406 21.226562 "/>
<path style=" stroke:none;fill-rule:evenodd;fill:rgb(27.450982%,62.7451%,21.568628%);fill-opacity:1;" d="M 20.589844 8.386719 C 20.328125 8.425781 20.0625 8.464844 19.796875 8.503906 C 19.199219 8.597656 18.601562 8.6875 18.003906 8.785156 C 17.503906 8.863281 17.003906 8.945312 16.503906 9.027344 L 16.195312 9.082031 L 16.195312 8.882812 C 16.183594 8.71875 16.167969 8.554688 16.164062 8.390625 L 16.132812 5.25 C 16.121094 4.597656 16.109375 3.941406 16.097656 3.285156 C 16.089844 2.878906 16.082031 2.472656 16.0625 2.066406 C 16.050781 1.847656 16.015625 1.632812 16.003906 1.414062 C 15.996094 1.289062 16.007812 1.160156 16.007812 1.035156 C 16.164062 1.335938 16.316406 1.640625 16.476562 1.941406 C 16.730469 2.414062 17.132812 2.765625 17.5 3.148438 C 18.933594 4.65625 19.953125 6.40625 20.589844 8.386719 Z M 20.589844 8.386719 "/>
<path style=" stroke:none;fill-rule:evenodd;fill:rgb(25.098041%,58.039218%,20%);fill-opacity:1;" d="M 16.199219 15.632812 L 16.242188 15.617188 C 16.335938 15.296875 16.625 15.34375 16.855469 15.304688 C 17.511719 15.191406 18.167969 15.085938 18.824219 14.980469 C 19.460938 14.878906 20.097656 14.773438 20.730469 14.675781 C 20.808594 14.664062 20.886719 14.671875 20.960938 14.671875 C 20.84375 15.097656 20.75 15.53125 20.601562 15.941406 C 20.429688 16.410156 20.222656 16.867188 20 17.3125 C 19.671875 17.980469 19.265625 18.605469 18.789062 19.179688 C 18.421875 19.617188 18.011719 20.027344 17.605469 20.429688 C 17.378906 20.652344 17.109375 20.832031 16.863281 21.03125 L 16.796875 20.988281 L 16.566406 20.789062 L 16.328125 20.265625 C 16.160156 19.648438 16.074219 19.023438 16.058594 18.382812 L 16.066406 18.277344 L 16.097656 17.8125 C 16.109375 17.65625 16.121094 17.496094 16.128906 17.339844 C 16.152344 16.769531 16.175781 16.203125 16.199219 15.632812 Z M 16.199219 15.632812 "/>
<path style=" stroke:none;fill-rule:evenodd;fill:rgb(30.980393%,66.666669%,25.490198%);fill-opacity:1;" d="M 16.199219 15.632812 C 16.175781 16.203125 16.152344 16.769531 16.128906 17.339844 C 16.121094 17.5 16.109375 17.65625 16.097656 17.816406 L 15.953125 17.871094 C 15.628906 16.914062 15.300781 15.96875 14.984375 15.023438 C 14.460938 13.453125 13.941406 11.882812 13.417969 10.316406 C 12.992188 9.050781 12.566406 7.785156 12.136719 6.523438 C 12.117188 6.464844 12.058594 6.417969 12.019531 6.363281 L 12.953125 4.644531 C 12.988281 4.699219 13.027344 4.753906 13.050781 4.8125 C 13.480469 6.09375 13.914062 7.375 14.339844 8.65625 C 14.898438 10.324219 15.453125 11.992188 16.007812 13.660156 C 16.03125 13.726562 16.066406 13.785156 16.101562 13.859375 L 16.230469 13.710938 C 16.21875 14.351562 16.207031 14.992188 16.199219 15.632812 Z M 16.199219 15.632812 "/>
<path style=" stroke:none;fill-rule:evenodd;fill:rgb(29.019609%,65.490198%,23.529412%);fill-opacity:1;" d="M 12.019531 6.363281 C 12.058594 6.417969 12.117188 6.464844 12.136719 6.523438 C 12.566406 7.785156 12.992188 9.050781 13.417969 10.316406 C 13.941406 11.882812 14.460938 13.453125 14.984375 15.023438 C 15.300781 15.96875 15.628906 16.914062 15.953125 17.871094 L 16.097656 17.816406 L 16.066406 18.277344 L 16.035156 18.386719 C 15.984375 18.890625 15.941406 19.402344 15.878906 19.90625 C 15.847656 20.160156 15.78125 20.410156 15.730469 20.660156 C 15.695312 20.605469 15.640625 20.554688 15.621094 20.496094 C 14.578125 17.382812 13.535156 14.269531 12.492188 11.15625 C 12.160156 10.167969 11.828125 9.175781 11.492188 8.1875 C 11.476562 8.136719 11.425781 8.097656 11.394531 8.054688 Z M 12.019531 6.363281 "/>
<path style=" stroke:none;fill-rule:evenodd;fill:rgb(34.117648%,68.235296%,27.843139%);fill-opacity:1;" d="M 16.230469 13.710938 L 16.101562 13.859375 C 16.066406 13.785156 16.03125 13.726562 16.007812 13.660156 C 15.453125 11.992188 14.898438 10.324219 14.339844 8.65625 C 13.914062 7.375 13.480469 6.09375 13.046875 4.8125 C 13.027344 4.753906 12.984375 4.699219 12.953125 4.644531 L 14.109375 3.125 C 14.148438 3.171875 14.199219 3.214844 14.21875 3.269531 C 14.539062 4.210938 14.855469 5.152344 15.171875 6.09375 C 15.46875 6.972656 15.757812 7.851562 16.058594 8.730469 C 16.078125 8.789062 16.148438 8.832031 16.195312 8.882812 L 16.195312 9.082031 Z M 16.230469 13.710938 "/>
<path style=" stroke:none;fill-rule:evenodd;fill:rgb(37.64706%,69.803923%,30.980393%);fill-opacity:1;" d="M 16.195312 8.882812 C 16.148438 8.832031 16.078125 8.789062 16.058594 8.730469 C 15.757812 7.851562 15.46875 6.972656 15.171875 6.09375 C 14.855469 5.152344 14.539062 4.210938 14.21875 3.269531 C 14.199219 3.214844 14.148438 3.171875 14.109375 3.125 C 14.484375 2.757812 14.851562 2.375 15.242188 2.023438 C 15.589844 1.710938 15.867188 1.375 15.882812 0.882812 L 15.910156 0.785156 L 16.007812 1.035156 C 16.007812 1.160156 15.996094 1.289062 16.003906 1.414062 C 16.015625 1.632812 16.050781 1.847656 16.0625 2.066406 C 16.082031 2.472656 16.089844 2.878906 16.097656 3.285156 C 16.109375 3.941406 16.121094 4.597656 16.128906 5.25 L 16.164062 8.390625 C 16.167969 8.554688 16.183594 8.71875 16.195312 8.882812 Z M 16.195312 8.882812 "/>
<path style=" stroke:none;fill-rule:evenodd;fill:rgb(66.274512%,66.666669%,53.333336%);fill-opacity:1;" d="M 15.730469 20.660156 C 15.78125 20.410156 15.847656 20.160156 15.878906 19.90625 C 15.941406 19.402344 15.984375 18.890625 16.035156 18.386719 L 16.046875 18.382812 L 16.058594 18.386719 C 16.074219 19.023438 16.160156 19.648438 16.328125 20.265625 C 16.292969 20.308594 16.246094 20.347656 16.226562 20.398438 C 16.089844 20.789062 15.957031 21.183594 15.820312 21.574219 C 15.800781 21.628906 15.746094 21.671875 15.707031 21.71875 L 15.566406 21.226562 Z M 15.730469 20.660156 "/>
<path style=" stroke:none;fill-rule:evenodd;fill:rgb(71.372551%,70.980394%,59.607846%);fill-opacity:1;" d="M 15.707031 21.71875 C 15.746094 21.671875 15.800781 21.628906 15.820312 21.574219 C 15.957031 21.183594 16.089844 20.789062 16.226562 20.398438 C 16.246094 20.347656 16.292969 20.308594 16.328125 20.265625 L 16.566406 20.789062 C 16.519531 20.859375 16.453125 20.917969 16.425781 20.992188 L 15.96875 22.339844 C 15.949219 22.394531 15.886719 22.433594 15.839844 22.480469 Z M 15.707031 21.71875 "/>
<path style=" stroke:none;fill-rule:evenodd;fill:rgb(76.078433%,75.686276%,65.490198%);fill-opacity:1;" d="M 15.839844 22.480469 C 15.886719 22.433594 15.949219 22.394531 15.96875 22.339844 L 16.425781 20.992188 C 16.453125 20.917969 16.519531 20.855469 16.566406 20.789062 L 16.796875 20.988281 C 16.6875 21.097656 16.625 21.226562 16.660156 21.386719 L 16.589844 21.621094 C 16.558594 21.660156 16.511719 21.691406 16.496094 21.738281 C 16.335938 22.199219 16.183594 22.660156 16.023438 23.117188 C 16.003906 23.175781 15.945312 23.222656 15.90625 23.273438 Z M 15.839844 22.480469 "/>
<path style=" stroke:none;fill-rule:evenodd;fill:rgb(80.784315%,80.392158%,71.764708%);fill-opacity:1;" d="M 15.90625 23.273438 C 15.945312 23.222656 16.003906 23.175781 16.023438 23.117188 C 16.183594 22.660156 16.335938 22.195312 16.496094 21.738281 C 16.511719 21.691406 16.558594 21.660156 16.589844 21.617188 L 16.492188 22.679688 C 16.46875 22.707031 16.429688 22.734375 16.417969 22.769531 L 16.09375 23.695312 C 16.070312 23.757812 16.027344 23.816406 15.992188 23.875 C 15.964844 23.835938 15.910156 23.796875 15.90625 23.757812 C 15.898438 23.597656 15.90625 23.433594 15.90625 23.273438 Z M 15.90625 23.273438 "/>
<path style=" stroke:none;fill-rule:evenodd;fill:rgb(85.882354%,85.490197%,78.039217%);fill-opacity:1;" d="M 15.996094 23.875 C 16.027344 23.816406 16.070312 23.757812 16.09375 23.695312 L 16.417969 22.769531 C 16.429688 22.734375 16.46875 22.707031 16.492188 22.679688 L 16.496094 23.375 L 16.265625 23.96875 Z M 15.996094 23.875 "/>
<path style=" stroke:none;fill-rule:evenodd;fill:rgb(92.156863%,91.37255%,86.274511%);fill-opacity:1;" d="M 16.265625 23.96875 L 16.496094 23.375 L 16.542969 24.078125 Z M 16.265625 23.96875 "/>
<path style=" stroke:none;fill-rule:evenodd;fill:rgb(80.784315%,80.392158%,71.764708%);fill-opacity:1;" d="M 16.660156 21.386719 C 16.625 21.226562 16.6875 21.097656 16.796875 20.988281 L 16.863281 21.03125 Z M 16.660156 21.386719 "/>
<path style=" stroke:none;fill-rule:evenodd;fill:rgb(30.980393%,66.666669%,25.490198%);fill-opacity:1;" d="M 16.058594 18.386719 L 16.046875 18.382812 L 16.035156 18.386719 L 16.066406 18.277344 Z M 16.058594 18.386719 "/>
</g>
</svg>
